<?xml version="1.0" encoding="UTF-8" standalone="no"?>
<!-- Created with Inkscape (http://www.inkscape.org/) -->

<svg
   width="194.47mm"
   height="48.172211mm"
   viewBox="0 0 194.47 48.172211"
   version="1.1"
   id="svg1"
   xml:space="preserve"
   inkscape:version="1.3 (0e150ed6c4, 2023-07-21)"
   sodipodi:docname="arpeggio-logo.svg"
   xmlns:inkscape="http://www.inkscape.org/namespaces/inkscape"
   xmlns:sodipodi="http://sodipodi.sourceforge.net/DTD/sodipodi-0.dtd"
   xmlns="http://www.w3.org/2000/svg"
   xmlns:svg="http://www.w3.org/2000/svg"
   xmlns:rdf="http://www.w3.org/1999/02/22-rdf-syntax-ns#"
   xmlns:cc="http://creativecommons.org/ns#"
   xmlns:dc="http://purl.org/dc/elements/1.1/"><sodipodi:namedview
     id="namedview1"
     pagecolor="#ffffff"
     bordercolor="#000000"
     borderopacity="0.25"
     inkscape:showpageshadow="2"
     inkscape:pageopacity="0.0"
     inkscape:pagecheckerboard="0"
     inkscape:deskcolor="#d1d1d1"
     inkscape:document-units="mm"
     inkscape:zoom="1.6204616"
     inkscape:cx="388.77812"
     inkscape:cy="99.971517"
     inkscape:window-width="3840"
     inkscape:window-height="2054"
     inkscape:window-x="-11"
     inkscape:window-y="-11"
     inkscape:window-maximized="1"
     inkscape:current-layer="layer1" /><defs
     id="defs1" /><g
     inkscape:label="Layer 1"
     inkscape:groupmode="layer"
     id="layer1"
     transform="translate(-2.1588748,-122.17882)"><text
       xml:space="preserve"
       style="font-style:normal;font-variant:normal;font-weight:bold;font-stretch:normal;font-size:35.2778px;font-family:'Calisto MT';-inkscape-font-specification:'Calisto MT Bold';fill:#000000;stroke-width:0.264583"
       x="53.881256"
       y="151.19405"
       id="text1"><tspan
         sodipodi:role="line"
         id="tspan1"
         style="font-style:normal;font-variant:normal;font-weight:bold;font-stretch:normal;font-size:35.2778px;font-family:'Calisto MT';-inkscape-font-specification:'Calisto MT Bold';stroke-width:0.264583"
         x="53.881256"
         y="151.19405">Arpeggio</tspan></text><g
       id="g1"
       transform="matrix(0,10.640599,-10.640599,0,144.48609,161.75343)"><path
         style="fill:currentColor"
         id="path22"
         d="M 0.172,0.112 C 0.156,0.1 0.148,0.08 0.148,0.064 0.148,0.032 0.176,0 0.212,0 0.224,0 0.24,0.004 0.252,0.016 l 0.512,0.428 c 0.032,0.024 0.044,0.052 0.044,0.08 0,0.096 -0.156,0.204 -0.272,0.312 -0.06,0.056 -0.092,0.136 -0.092,0.212 0,0.068 0.02,0.132 0.068,0.188 l 0.124,0.1 C 0.652,1.348 0.66,1.368 0.66,1.384 0.66,1.416 0.632,1.448 0.596,1.448 0.584,1.448 0.568,1.444 0.556,1.432 L 0.044,1.004 C 0.012,0.98 0,0.952 0,0.924 0,0.828 0.156,0.72 0.272,0.612 0.332,0.556 0.364,0.476 0.364,0.4 0.364,0.332 0.344,0.268 0.296,0.212 Z" /><path
         style="fill:currentColor"
         id="path24"
         d="M 0.172,1.112 C 0.156,1.1 0.148,1.08 0.148,1.064 0.148,1.032 0.176,1 0.212,1 0.224,1 0.24,1.004 0.252,1.016 l 0.512,0.428 c 0.032,0.024 0.044,0.052 0.044,0.08 0,0.096 -0.156,0.204 -0.272,0.312 -0.06,0.056 -0.092,0.136 -0.092,0.212 0,0.068 0.02,0.132 0.068,0.188 l 0.124,0.1 C 0.652,2.348 0.66,2.368 0.66,2.384 0.66,2.416 0.632,2.448 0.596,2.448 0.584,2.448 0.568,2.444 0.556,2.432 L 0.044,2.004 C 0.012,1.98 0,1.952 0,1.924 0,1.828 0.156,1.72 0.272,1.612 0.332,1.556 0.364,1.476 0.364,1.4 0.364,1.332 0.344,1.268 0.296,1.212 Z" /><path
         style="fill:currentColor"
         id="path26"
         d="M 0.172,2.112 C 0.156,2.1 0.148,2.08 0.148,2.064 0.148,2.032 0.176,2 0.212,2 0.224,2 0.24,2.004 0.252,2.016 l 0.512,0.428 c 0.032,0.024 0.044,0.052 0.044,0.08 0,0.096 -0.156,0.204 -0.272,0.312 -0.06,0.056 -0.092,0.136 -0.092,0.212 0,0.068 0.02,0.132 0.068,0.188 l 0.124,0.1 C 0.652,3.348 0.66,3.368 0.66,3.384 0.66,3.416 0.632,3.448 0.596,3.448 0.584,3.448 0.568,3.444 0.556,3.432 L 0.044,3.004 C 0.012,2.98 0,2.952 0,2.924 0,2.828 0.156,2.72 0.272,2.612 0.332,2.556 0.364,2.476 0.364,2.4 0.364,2.332 0.344,2.268 0.296,2.212 Z" /><path
         style="fill:currentColor"
         id="path28"
         d="M 0.172,3.112 C 0.156,3.1 0.148,3.08 0.148,3.064 0.148,3.032 0.176,3 0.212,3 0.224,3 0.24,3.004 0.252,3.016 l 0.512,0.428 c 0.032,0.024 0.044,0.052 0.044,0.08 0,0.096 -0.156,0.204 -0.272,0.312 -0.06,0.056 -0.092,0.136 -0.092,0.212 0,0.068 0.02,0.132 0.068,0.188 l 0.124,0.1 C 0.652,4.348 0.66,4.368 0.66,4.384 0.66,4.416 0.632,4.448 0.596,4.448 0.584,4.448 0.568,4.444 0.556,4.432 L 0.044,4.004 C 0.012,3.98 0,3.952 0,3.924 0,3.828 0.156,3.72 0.272,3.612 0.332,3.556 0.364,3.476 0.364,3.4 0.364,3.332 0.344,3.268 0.296,3.212 Z" /></g><g
       id="g2"
       transform="matrix(0.16690426,0,0,0.16589484,-30.909691,87.562541)"><path
         d="m 396.59473,337.01292 -62.66927,29.13967 0.12137,104.49492 120.40044,-125.02854 -49.57072,-12.42786 z m -7.25729,61.89772 -3.38874,8.37584 -27.69574,-5.10277 2.85311,-7.31199 a 80.519575,80.519575 0 0 0 7.69833,-6.47206 95.265485,95.265485 0 0 0 9.4397,-9.98161 97.142486,97.142486 0 0 0 7.18321,-10.2329 65.875663,65.875663 0 0 0 5.42131,-10.23974 l 8.01629,1.43026 q -5.33926,12.72645 -17.30044,25.31729 -7.57638,7.7724 -11.76402,10.61924 z M 251.92776,333.076 203.65795,345.47709 323.08228,470.78313 V 366.15202 l -62.6499,-29.1391 z m 10.91042,28.9767 a 16.36535,16.36535 0 0 1 13.83134,3.87594 30.230312,30.230312 0 0 1 6.39685,8.08467 l -7.45387,1.52485 a 16.263922,16.263922 0 0 0 -3.07021,-4.20188 q -2.95454,-2.77847 -6.41736,-2.19554 l -0.27751,0.0541 a 3.6799245,3.6799245 0 0 0 -2.94143,2.53458 c -0.48777,1.35504 -0.13562,3.1648 1.02341,5.33982 q 2.32488,4.33066 6.1598,5.1438 a 13.553268,13.553268 0 0 0 4.8794,-0.11567 l 1.06386,-0.19602 3.29985,6.16663 q -3.64573,0.81314 -4.68965,1.87017 -1.82914,1.78924 0.24445,5.65835 a 9.7109436,9.7109436 0 0 0 3.46966,3.81554 5.9295904,5.9295904 0 0 0 4.20816,0.87411 l 0.23704,-0.0473 q 2.71066,-0.54931 2.89414,-2.71066 c 0.14872,-1.46444 -0.37324,-3.27307 -1.56588,-5.4213 l 7.05443,-1.45021 a 28.062131,28.062131 0 0 1 2.33798,6.39685 11.371411,11.371411 0 0 1 -0.36582,5.34666 6.6680825,6.6680825 0 0 1 -2.25651,3.08332 11.154308,11.154308 0 0 1 -4.57397,1.84338 l -0.6781,0.12194 a 15.938552,15.938552 0 0 1 -9.9685,-1.53852 18.34435,18.34435 0 0 1 -8.05048,-8.02996 q -2.06675,-3.86911 -1.48382,-6.94616 a 4.7842438,4.7842438 0 0 1 1.43653,-2.81892 h -0.0405 q -1.05076,0.17664 -4.01156,-1.42285 a 18.297054,18.297054 0 0 1 -7.35985,-7.74562 q -2.98873,-5.56377 -1.87016,-10.48363 1.11799,-4.91986 7.79291,-6.26806 z m -64.70923,-26.39482 61.98547,-66.27568 a 4.0656955,4.0656955 0 0 1 0.81314,0 h 0.0877 q 1.78925,0.19658 1.61944,2.11404 a 11.031796,11.031796 0 0 1 -1.877,4.61558 22.437397,22.437397 0 0 1 -5.54325,5.92902 q -2.22915,1.67414 -8.57243,5.4213 -7.29147,4.27653 -11.14006,8.41631 a 52.72868,52.72868 0 0 0 -6.56039,8.25447 l 18.75121,2.1414 4.6623,-7.38663 -11.94751,-1.35505 a 20.750147,20.750147 0 0 1 2.71066,-2.18242 q 1.35561,-0.91457 4.81159,-2.92035 l 3.65941,-2.13513 a 52.979403,52.979403 0 0 0 7.35244,-5.00078 35.028232,35.028232 0 0 0 7.12851,-8.21344 q 3.89759,-6.18031 3.70043,-10.23233 c -0.10826,-2.25024 -1.19948,-3.66625 -3.23888,-4.27653 l 45.47084,-48.5268 -58.17735,102.32674 -3.25255,5.73243 z m 209.2611,-41.01253 q -2.17502,-3.1101 -2.1414,-4.85206 c 0,-1.15845 0.67809,-1.82286 2.03313,-1.96475 h 0.3248 a 6.7763491,6.7763491 0 0 1 3.93748,1.28039 17.009252,17.009252 0 0 1 4.46572,4.58766 q 2.10094,3.00867 2.11404,4.78481 c 0,1.19264 -0.67695,1.85649 -1.9921,2.03257 h -0.33848 a 6.6954341,6.6954341 0 0 1 -3.96426,-1.35505 16.975062,16.975062 0 0 1 -4.43893,-4.49306 z m -62.34447,-80.64152 47.8356,51.07562 h -0.67752 c -0.21654,0 -0.55558,0 -0.83366,0.061 q -4.45887,0.50829 -4.74321,3.91014 -0.28491,3.40185 2.86621,7.83337 a 30.644005,30.644005 0 0 0 3.63263,4.20188 21.596906,21.596906 0 0 0 5.7803,3.93008 q -1.20631,1.64679 -0.40001,4.54719 a 21.244755,21.244755 0 0 0 3.19842,6.32277 31.409848,31.409848 0 0 0 8.67443,8.43682 q 4.61444,3.00183 9.1548,2.81208 0.46156,0 0.92198,-0.0741 5.00077,-0.56299 5.25833,-4.48622 a 9.1821468,9.1821468 0 0 0 -0.26383,-2.76536 l 33.44242,35.72001 -52.17994,-13.07235 -3.47593,-6.09882 z m 55.96813,59.78994 1.39607,1.49123 c 0.25699,0.3248 0.51455,0.67752 0.77212,1.01657 1.03024,1.47698 1.55163,2.71065 1.55163,3.72038 0,1.00916 -0.5892,1.58525 -1.78184,1.72087 h -0.29175 a 5.8954009,5.8954009 0 0 1 -3.46283,-1.11116 12.875747,12.875747 0 0 1 -3.52379,-3.49701 c -1.12483,-1.6126 -1.67357,-2.90724 -1.63995,-3.88278 0.0342,-0.97611 0.63706,-1.53852 1.81603,-1.67357 h 0.29859 a 5.8481055,5.8481055 0 0 1 3.42179,1.0707 10.910423,10.910423 0 0 1 1.44336,1.14534 z m -72.5107,-65.12976 -67.54183,116.82877 67.5424,31.36882 67.58343,-31.36882 z m -0.67809,118.78725 q -9.98844,0 -14.00627,-6.99345 -4.01897,-6.99345 -4.01897,-19.93701 0,-12.94298 4.0184,-19.97062 4.0184,-7.02707 14.00741,-7.03391 9.98902,0 14.00742,7.02707 4.0184,7.02764 4.0184,19.97063 0,12.94355 -4.0184,19.937 -4.01897,6.99346 -14.00742,7.00029 z m 6.00481,-40.91736 q 1.42285,4.54036 1.42285,13.9869 0,9.01291 -1.42285,13.79032 -1.42342,4.7774 -6.00424,4.74378 -4.58138,0 -6.05837,-4.74378 -1.47755,-4.74322 -1.47755,-13.78975 0,-9.44711 1.47755,-13.98747 1.47756,-4.54036 6.05837,-4.54036 4.56714,-0.007 5.99056,4.53352 z"
         fill="#ffffff"
         id="path2"
         style="fill:#000000;fill-opacity:1;stroke-width:0.569824" /></g></g><metadata
     id="metadata2"><rdf:RDF><cc:Work
         rdf:about=""><dc:contributor><cc:Agent><dc:title>D10 SVG is CC BY 3.0 from https://iconduck.com/icons/26318/d10</dc:title></cc:Agent></dc:contributor></cc:Work></rdf:RDF></metadata></svg>
